<svg xmlns="http://www.w3.org/2000/svg" role="img" viewBox="209.70 331.70 1627.60 1379.60"><g><path d="M6331 16835 c-16 -5 -46 -23 -67 -40 -20 -16 -49 -39 -64 -50 -75 -55 -254 -190 -359 -270 -134 -102 -156 -119 -227 -172 -28 -21 -131 -99 -229 -173 -98 -74 -192 -145 -209 -158 -17 -12 -44 -33 -61 -46 -16 -13 -77 -59 -135 -101 -58 -43 -107 -81 -110 -85 -3 -3 -25 -21 -50 -39 -71 -51 -145 -106 -342 -255 -101 -77 -255 -194 -343 -260 -88 -66 -162 -123 -165 -126 -4 -4 -318 -242 -389 -294 -66 -49 -177 -132 -191 -143 -8 -7 -38 -30 -66 -50 -28 -21 -77 -58 -109 -83 -32 -25 -79 -61 -106 -80 -49 -36 -362 -272 -389 -294 -9 -7 -72 -55 -140 -107 -69 -52 -130 -98 -137 -104 -7 -5 -17 -38 -22 -73 l-10 -62 52 -69 c125 -165 234 -306 341 -446 191 -247 210 -272 361 -470 81 -104 154 -199 164 -210 9 -11 64 -83 121 -159 141 -186 136 -180 273 -356 32 -41 64 -82 70 -90 7 -9 32 -42 57 -75 24 -33 50 -66 57 -73 7 -8 27 -35 45 -60 17 -26 35 -49 38 -52 4 -3 47 -57 95 -120 167 -220 195 -256 287 -376 51 -66 129 -167 173 -225 152 -199 256 -334 288 -373 18 -22 47 -60 65 -85 18 -25 47 -64 65 -87 17 -22 59 -76 92 -120 62 -83 74 -97 116 -148 14 -17 75 -96 135 -175 60 -79 125 -164 144 -189 19 -25 51 -66 70 -92 19 -27 94 -124 165 -217 72 -92 144 -186 160 -207 17 -22 51 -67 77 -100 27 -34 86 -110 132 -171 46 -60 121 -157 165 -215 45 -58 102 -132 127 -165 25 -33 57 -74 70 -92 14 -18 38 -48 52 -67 15 -20 73 -95 129 -168 56 -73 137 -178 179 -233 42 -55 84 -109 93 -121 10 -11 37 -46 62 -79 100 -133 145 -190 410 -535 44 -58 105 -136 134 -175 29 -38 82 -107 117 -152 194 -251 307 -398 338 -441 19 -26 73 -97 120 -157 47 -61 99 -127 115 -149 17 -21 65 -84 108 -140 77 -99 172 -223 212 -275 11 -14 94 -123 185 -241 91 -118 186 -241 210 -274 72 -94 119 -156 220 -287 53 -68 133 -173 180 -234 46 -60 96 -126 112 -145 15 -19 116 -150 223 -290 108 -140 211 -275 230 -300 19 -25 91 -119 161 -210 172 -225 155 -210 234 -210 82 0 69 -13 325 328 11 15 117 153 235 307 119 154 235 307 260 340 24 33 46 62 49 65 12 10 87 105 111 140 14 20 99 132 190 250 91 117 188 243 215 279 124 162 225 293 292 381 41 52 97 124 124 160 28 36 61 79 74 95 12 17 57 75 99 130 42 55 123 160 179 233 56 72 120 156 142 185 43 58 127 168 197 258 24 30 63 82 88 115 25 32 47 61 51 64 3 3 25 31 50 64 148 196 312 411 318 416 3 3 47 59 96 125 50 66 93 122 96 125 3 3 21 26 40 51 42 57 122 162 228 299 45 58 121 157 169 220 48 63 105 138 127 165 51 65 73 93 192 249 54 71 125 164 158 206 33 43 78 101 100 130 22 29 60 79 85 110 25 32 62 80 82 107 21 26 97 125 169 218 72 94 144 188 160 210 17 22 42 55 57 74 15 19 36 46 47 61 11 15 74 98 140 184 66 86 132 172 147 192 14 19 38 49 52 67 13 18 68 88 120 157 53 69 109 141 124 160 16 19 65 84 111 143 74 98 142 186 174 227 7 8 55 71 106 140 52 69 129 168 170 221 72 91 140 179 294 384 38 49 77 99 86 111 16 18 92 117 294 383 32 42 66 85 75 96 10 11 37 47 61 80 25 33 48 62 51 65 3 3 21 26 38 52 18 25 38 52 45 60 10 11 90 114 316 408 23 30 66 87 96 125 48 64 124 163 304 396 36 46 100 130 143 186 l77 101 -10 64 c-7 45 -16 68 -32 81 -23 18 -412 313 -577 437 -52 39 -108 82 -125 95 -16 13 -50 39 -75 57 -235 177 -498 375 -510 385 -22 18 -324 245 -565 426 -115 87 -246 186 -289 220 -44 34 -98 76 -122 92 -23 17 -149 111 -279 210 -131 99 -306 231 -389 293 -83 63 -167 126 -186 142 -19 15 -138 106 -265 201 -330 248 -429 323 -435 329 -34 36 128 35 -3947 40 -2589 3 -3913 2 -3932 -5z m468 -179 c-2 -2 -38 -17 -81 -34 -42 -17 -96 -39 -120 -50 -23 -11 -115 -50 -203 -87 -88 -37 -178 -75 -200 -85 -22 -10 -101 -44 -175 -75 -74 -32 -139 -60 -145 -63 -25 -13 16 22 101 85 50 37 164 123 253 191 l163 122 206 0 c113 0 203 -2 201 -4z m3095 -5 c-5 -5 -70 -47 -144 -92 -74 -45 -162 -99 -195 -120 -33 -21 -91 -57 -130 -80 -69 -42 -303 -186 -420 -259 -33 -21 -121 -75 -195 -121 -74 -45 -188 -116 -253 -156 -65 -40 -122 -74 -126 -76 -5 -1 -143 129 -306 288 -163 160 -374 365 -468 457 l-172 167 1209 0 c739 1 1206 -3 1200 -8z m2766 -318 c-184 -180 -395 -387 -469 -459 l-134 -132 -61 37 c-348 214 -604 372 -666 411 -41 26 -127 79 -190 118 -63 38 -153 93 -200 122 -47 29 -105 65 -130 80 -122 74 -216 133 -224 141 -6 5 467 9 1199 9 l1210 0 -335 -327z m1617 185 c103 -78 221 -166 261 -196 39 -30 72 -56 72 -59 0 -2 -3 -2 -7 0 -5 3 -69 30 -143 62 -74 31 -148 63 -165 71 -63 28 -464 197 -535 226 -41 16 -77 32 -79 34 -2 2 88 4 202 4 l206 0 188 -142z m-4023 123 c4 -6 348 -222 471 -294 11 -7 45 -28 75 -48 31 -19 62 -38 70 -42 8 -4 76 -45 150 -91 74 -46 178 -111 230 -143 353 -216 623 -384 645 -399 l25 -19 -242 -241 c-134 -132 -459 -452 -723 -710 -264 -258 -532 -519 -595 -581 -63 -62 -117 -113 -121 -113 -3 0 -58 51 -120 113 -63 63 -427 420 -809 794 -382 374 -708 694 -723 710 l-28 30 38 25 c33 23 130 82 523 323 47 29 123 76 170 105 47 29 123 76 170 105 47 29 123 76 170 105 47 29 99 61 117 71 17 10 56 33 85 52 29 19 125 79 213 132 88 54 167 104 175 111 17 16 27 18 34 5z m-2738 -266 c148 -146 375 -371 505 -500 l236 -235 -81 -51 c-45 -28 -162 -100 -261 -161 -358 -220 -441 -271 -475 -293 -19 -12 -96 -60 -170 -105 -74 -46 -187 -115 -250 -154 -63 -40 -158 -98 -210 -129 -52 -32 -149 -92 -215 -133 -66 -41 -151 -93 -189 -117 -39 -23 -85 -51 -103 -62 -18 -11 -79 -49 -135 -84 -420 -260 -470 -291 -479 -291 -5 0 -9 -4 -9 -10 0 -5 -5 -10 -11 -10 -6 0 -30 -14 -55 -31 -24 -16 -48 -28 -53 -24 -5 3 -12 31 -16 63 -3 31 -12 105 -20 165 -8 59 -22 158 -30 220 -9 61 -20 144 -25 182 -6 39 -12 86 -14 105 -14 109 -37 284 -72 533 -8 61 -22 159 -30 217 -8 58 -19 137 -24 175 -5 39 -12 95 -15 125 l-6 55 128 54 c194 82 614 261 648 276 17 8 134 57 260 110 127 54 250 106 275 117 93 42 108 48 114 48 3 0 29 11 58 25 90 41 432 184 444 185 6 0 132 -119 280 -265z m5821 229 c49 -20 165 -69 258 -109 94 -40 274 -116 400 -169 127 -54 254 -108 283 -122 29 -13 55 -24 58 -24 3 0 25 -9 48 -20 24 -11 156 -67 292 -125 137 -58 304 -129 372 -158 l123 -52 -6 -60 c-3 -33 -10 -87 -15 -120 -5 -33 -16 -114 -25 -180 -9 -66 -22 -165 -30 -220 -8 -55 -19 -140 -25 -190 -6 -49 -18 -133 -25 -185 -8 -52 -16 -115 -19 -140 -3 -25 -10 -76 -15 -115 -6 -38 -17 -122 -26 -185 -9 -63 -22 -160 -30 -215 -8 -55 -17 -128 -21 -163 -3 -34 -10 -64 -15 -67 -4 -3 -39 14 -76 38 -37 25 -122 77 -188 117 -66 40 -192 118 -280 172 -88 55 -169 105 -180 111 -11 7 -38 24 -60 38 -51 34 -167 103 -185 112 -8 4 -53 32 -100 62 -47 29 -150 93 -228 142 -79 48 -158 97 -176 108 -18 11 -63 39 -102 62 -38 24 -123 76 -189 117 -66 41 -154 95 -195 120 -155 95 -595 366 -650 401 -19 12 -47 29 -61 38 l-26 16 278 278 c415 415 731 723 740 723 5 0 48 -16 96 -36z m-8181 -992 c-3 -5 1 -49 9 -98 19 -126 36 -251 41 -304 3 -25 9 -70 14 -100 6 -30 12 -77 14 -104 5 -47 10 -82 41 -301 8 -55 21 -154 30 -220 9 -66 23 -169 31 -230 8 -60 19 -141 25 -180 5 -38 11 -91 14 -117 l4 -48 -689 0 c-612 0 -723 4 -682 22 4 2 153 221 331 488 263 394 645 962 779 1163 14 20 30 37 34 37 5 0 7 -4 4 -8z m10439 -377 c735 -1099 871 -1300 878 -1303 40 -18 -71 -22 -683 -22 l-690 0 4 43 c6 57 33 266 46 347 5 36 17 119 25 185 9 66 22 163 30 215 23 162 38 274 40 300 2 29 22 177 36 270 6 36 14 99 19 140 14 122 32 212 40 203 5 -4 119 -174 255 -378z m-6073 -835 l493 -489 -2105 -1 c-1774 0 -2101 2 -2085 14 11 7 139 86 285 176 338 208 836 515 918 566 78 48 103 64 228 139 54 33 104 63 109 68 6 4 114 71 240 149 261 160 333 204 425 263 36 23 79 49 95 59 17 9 84 49 150 90 l120 74 317 -310 c174 -170 539 -529 810 -798z m2698 1025 c36 -23 72 -44 80 -48 8 -4 42 -24 75 -45 86 -56 206 -130 400 -249 94 -57 208 -128 255 -158 47 -29 103 -63 124 -75 22 -12 87 -52 145 -89 58 -37 151 -95 206 -129 55 -33 188 -115 295 -181 107 -66 245 -150 305 -187 61 -37 133 -82 160 -99 28 -18 122 -76 210 -130 88 -54 169 -104 180 -111 16 -12 -307 -14 -2085 -14 l-2105 0 415 413 c228 227 593 587 810 799 l395 387 35 -21 c19 -12 64 -40 100 -63z m-7421 13 c-7 -13 -44 -70 -84 -128 -39 -58 -251 -373 -470 -700 -220 -327 -415 -618 -435 -647 l-35 -52 -509 -1 c-296 0 -506 4 -500 9 5 5 47 38 94 73 47 35 177 133 288 218 112 85 218 165 235 178 18 12 39 28 47 35 27 21 250 191 300 227 27 19 138 103 247 186 109 82 290 220 403 304 113 85 211 160 218 167 8 7 35 27 60 45 26 18 69 49 95 70 57 44 62 46 46 16z m11156 -188 c143 -108 369 -279 503 -381 134 -101 265 -200 291 -219 27 -19 100 -74 162 -122 63 -48 227 -171 364 -275 338 -255 428 -324 439 -334 6 -5 -204 -9 -500 -9 l-509 1 -38 56 c-21 30 -216 321 -434 647 -218 325 -434 646 -480 714 -46 67 -83 125 -83 128 0 9 14 -2 285 -206z m-12208 -1518 c6 -4 31 -88 56 -187 53 -214 131 -526 153 -610 9 -33 22 -87 30 -120 9 -33 21 -82 29 -110 7 -27 32 -126 54 -220 23 -93 48 -195 56 -225 20 -77 66 -260 70 -279 2 -9 15 -61 29 -116 14 -55 30 -118 35 -140 5 -22 13 -48 16 -57 14 -36 -14 -17 -43 30 -17 26 -39 56 -49 67 -20 23 -49 60 -148 190 -38 50 -89 116 -114 149 -61 78 -85 109 -155 202 -33 44 -62 81 -66 84 -3 3 -21 25 -38 50 -18 25 -49 66 -70 92 -20 26 -83 107 -139 180 -56 73 -111 144 -122 158 -11 14 -54 70 -96 125 -42 55 -93 123 -115 150 -21 28 -63 82 -92 120 -30 39 -94 122 -142 185 -49 63 -113 147 -142 187 -30 39 -58 75 -64 78 -5 3 -10 10 -10 15 0 11 1060 13 1077 2z m1670 -4 c4 -7 38 -112 76 -233 88 -281 106 -339 162 -515 25 -80 52 -165 59 -190 27 -92 156 -506 170 -545 8 -22 35 -107 61 -190 25 -82 53 -170 61 -195 34 -107 96 -306 139 -445 25 -82 50 -161 55 -175 5 -14 30 -92 55 -175 26 -82 52 -168 60 -190 7 -22 17 -56 23 -75 6 -19 31 -100 56 -180 25 -80 52 -167 61 -195 8 -27 26 -85 40 -128 13 -43 30 -97 36 -120 l11 -42 23 110 c13 61 33 134 46 162 25 61 27 52 -57 314 -26 79 -53 164 -60 189 -18 61 -55 182 -98 315 -19 61 -58 184 -86 275 -66 215 -159 508 -170 540 -5 14 -23 72 -40 130 -18 58 -38 123 -46 145 -16 50 -121 382 -141 450 -8 28 -19 61 -23 75 -5 14 -30 93 -55 175 -26 83 -53 167 -61 188 -26 70 -14 72 34 4 26 -37 83 -118 127 -180 44 -62 98 -137 118 -167 21 -30 70 -101 110 -157 40 -56 113 -160 162 -230 50 -70 120 -170 157 -223 38 -52 83 -117 102 -145 19 -27 61 -87 93 -132 181 -255 621 -880 641 -910 24 -36 19 -52 -16 -53 -33 0 -186 -79 -252 -128 -118 -89 -242 -235 -302 -357 -31 -60 -70 -175 -94 -270 -22 -89 -26 -429 -6 -515 8 -30 16 -66 18 -80 11 -61 71 -224 120 -325 96 -202 221 -367 381 -503 360 -307 771 -426 1403 -408 113 4 228 9 256 13 l52 5 15 -48 c8 -27 17 -58 20 -69 3 -11 15 -56 27 -100 12 -44 37 -136 55 -205 18 -69 45 -170 60 -225 14 -55 53 -199 85 -320 32 -121 68 -256 80 -300 12 -44 33 -120 45 -170 13 -49 31 -115 40 -145 9 -30 20 -71 24 -90 5 -19 16 -60 24 -90 8 -30 27 -100 42 -155 15 -55 36 -134 47 -175 11 -41 24 -88 28 -105 43 -166 71 -269 75 -274 2 -4 6 -18 9 -32 4 -24 17 -71 56 -214 12 -44 30 -111 40 -150 10 -38 30 -115 45 -170 15 -55 29 -107 30 -115 2 -8 22 -80 44 -160 21 -80 65 -242 96 -360 31 -118 63 -237 71 -265 39 -137 92 -340 90 -342 -1 -2 -28 30 -59 70 -96 123 -301 389 -347 451 -75 98 -217 283 -281 366 -140 181 -168 217 -204 266 -22 30 -79 104 -127 166 -48 62 -129 167 -180 234 -135 175 -186 242 -237 308 -25 32 -64 82 -86 111 -152 201 -222 293 -238 310 -11 11 -33 40 -50 65 -17 25 -35 48 -39 51 -5 3 -23 26 -41 51 -28 39 -84 113 -177 233 -14 17 -57 74 -97 126 -39 52 -95 123 -123 159 -89 115 -107 144 -125 205 -9 33 -39 128 -65 210 -27 83 -67 211 -90 285 -22 74 -47 153 -54 175 -20 61 -40 125 -92 290 -26 83 -64 204 -85 270 -22 66 -39 125 -39 130 0 6 -31 37 -70 69 -70 59 -121 111 -174 179 -16 20 -31 35 -33 33 -2 -2 3 -23 11 -47 8 -24 35 -111 61 -194 26 -82 66 -211 90 -285 24 -74 58 -182 75 -240 34 -111 96 -305 136 -429 13 -41 22 -76 20 -78 -2 -2 -37 40 -77 93 -41 54 -92 121 -114 149 -54 70 -72 94 -284 370 -101 132 -194 254 -207 270 -13 17 -77 99 -141 184 -135 175 -255 332 -316 410 -23 29 -58 75 -77 101 -54 73 -308 402 -328 425 -10 11 -33 41 -50 67 -18 25 -38 52 -45 60 -7 7 -32 38 -54 68 -23 30 -84 110 -135 176 -51 67 -136 177 -188 245 -52 68 -100 131 -107 139 -25 31 -162 209 -246 320 -48 63 -110 144 -138 180 -88 113 -163 211 -201 264 -36 49 -45 81 -219 771 -370 1471 -435 1736 -431 1740 3 2 332 5 733 5 575 0 729 -2 736 -12z m2464 -73 c9 -44 24 -125 33 -180 10 -55 22 -120 27 -145 5 -25 11 -61 14 -80 3 -19 10 -59 16 -88 6 -29 12 -65 14 -80 2 -15 9 -49 15 -76 6 -27 13 -70 16 -95 3 -25 7 -48 10 -52 2 -4 8 -35 13 -70 6 -35 19 -113 30 -174 12 -60 23 -128 26 -150 4 -22 10 -56 15 -75 5 -19 11 -51 14 -70 2 -19 8 -55 12 -79 l7 -44 23 90 c12 49 38 124 58 167 20 43 36 92 36 109 0 18 -11 88 -24 158 -14 69 -27 145 -31 170 -3 24 -10 60 -15 79 -5 19 -11 51 -14 70 -6 44 -56 328 -92 520 -31 164 -32 169 -16 175 22 8 2040 6 2045 -3 2 -4 -13 -59 -33 -122 -21 -63 -52 -162 -70 -220 -17 -58 -51 -168 -76 -245 -24 -77 -44 -148 -44 -157 0 -10 23 -30 54 -47 29 -17 59 -38 66 -46 24 -29 37 -14 64 78 15 50 31 106 36 122 5 17 16 53 24 80 70 231 101 325 106 325 3 0 19 -44 35 -97 16 -54 42 -138 58 -188 16 -49 30 -94 31 -100 1 -5 9 -32 18 -60 9 -27 35 -111 58 -185 23 -74 48 -153 54 -175 7 -22 19 -62 27 -88 9 -33 18 -47 29 -45 11 2 17 22 21 78 7 85 12 102 47 149 l25 34 -23 81 c-13 44 -38 126 -55 181 -39 122 -60 188 -61 195 -1 8 -63 205 -104 330 -20 63 -35 118 -33 122 5 9 2047 11 2055 3 3 -3 1 -27 -4 -53 -5 -26 -15 -83 -23 -127 -8 -44 -24 -129 -35 -190 -11 -60 -25 -139 -31 -174 -5 -35 -12 -73 -15 -85 -5 -20 1 -23 63 -35 37 -7 78 -14 91 -17 12 -2 22 -1 23 3 3 30 7 55 18 106 7 31 14 72 17 90 2 17 8 54 13 82 6 27 18 93 27 145 9 52 24 131 33 175 l16 80 1098 2 c603 2 1097 -1 1097 -5 0 -5 -14 -28 -30 -53 -56 -81 -164 -235 -247 -351 -45 -63 -85 -122 -88 -130 -5 -12 4 -16 37 -20 24 -3 63 -15 87 -27 25 -11 46 -21 47 -21 2 0 25 32 53 72 51 72 63 72 37 1 -7 -21 -21 -63 -30 -93 -10 -30 -23 -68 -28 -83 l-11 -28 -28 34 c-41 50 -99 77 -165 77 -76 0 -112 -18 -175 -89 -62 -71 -135 -112 -244 -137 -108 -24 -453 -30 -634 -10 -79 9 -162 16 -185 16 -46 0 -66 13 -66 45 -1 67 -81 167 -167 210 -52 26 -68 29 -148 28 -128 -1 -222 -47 -291 -142 l-34 -48 -57 8 c-485 62 -598 72 -868 72 -281 1 -352 -7 -525 -60 -276 -84 -469 -270 -434 -419 11 -51 52 -110 94 -139 80 -55 225 -43 283 23 51 59 86 83 152 107 124 44 254 65 402 65 181 0 574 -34 772 -67 52 -8 105 -15 119 -15 13 0 25 -6 28 -12 2 -6 5 -891 6 -1966 l3 -1955 30 -59 c31 -61 84 -114 150 -149 54 -29 218 -31 283 -4 93 38 179 126 202 207 6 23 10 708 10 1938 l0 1903 58 -5 c238 -22 383 -28 568 -23 234 6 233 6 373 41 141 35 283 102 355 168 11 10 22 16 24 13 3 -2 -4 -33 -16 -67 -40 -124 -142 -447 -217 -693 -20 -66 -47 -151 -60 -190 -13 -38 -40 -124 -60 -190 -20 -66 -45 -145 -55 -175 -9 -30 -36 -116 -59 -190 -23 -74 -49 -155 -57 -180 -27 -85 -92 -295 -134 -430 -23 -74 -50 -160 -60 -190 -10 -30 -37 -116 -60 -190 -23 -74 -47 -153 -54 -175 -8 -22 -34 -105 -59 -185 -25 -80 -70 -224 -100 -320 -31 -96 -74 -236 -97 -310 -23 -74 -59 -189 -80 -255 -21 -66 -55 -174 -75 -240 -36 -117 -153 -489 -179 -570 -26 -80 -45 -142 -86 -275 -23 -74 -61 -196 -84 -270 -24 -74 -54 -169 -66 -210 -24 -77 -41 -106 -130 -220 -77 -98 -282 -365 -432 -561 -40 -53 -132 -172 -203 -265 -72 -93 -144 -187 -160 -208 -17 -22 -64 -83 -105 -137 -41 -53 -122 -158 -180 -233 -58 -75 -122 -159 -142 -187 -34 -47 -57 -77 -133 -169 -16 -20 -44 -57 -62 -81 -17 -24 -75 -100 -128 -169 -102 -132 -183 -238 -250 -326 -109 -143 -246 -321 -432 -561 -31 -40 -58 -71 -60 -70 -1 2 3 23 11 48 8 24 26 89 40 144 14 55 58 217 96 360 39 143 73 271 76 285 3 14 16 63 29 110 13 47 36 130 50 185 15 55 38 141 52 190 13 50 28 106 32 125 5 19 19 71 31 115 12 44 26 94 30 110 4 17 10 37 14 45 3 8 7 26 10 40 5 31 46 181 51 190 2 4 6 17 9 31 2 13 11 49 19 79 27 98 55 203 82 305 15 55 34 125 42 155 8 30 19 71 24 90 4 19 17 69 29 110 12 41 23 82 25 90 2 8 17 65 33 125 79 295 163 608 181 675 10 41 36 136 56 210 20 74 38 142 40 150 5 22 52 196 69 255 8 28 17 59 19 70 3 11 15 56 27 100 12 44 23 87 25 95 2 8 13 51 25 95 12 44 26 94 30 110 4 17 18 66 30 110 12 44 25 91 28 104 2 12 21 47 41 75 29 43 324 460 406 576 21 29 49 70 140 200 l54 78 1 148 c1 82 -1 150 -5 152 -4 2 -33 -34 -64 -80 -32 -46 -129 -184 -217 -308 -87 -124 -181 -258 -208 -297 -27 -40 -51 -71 -53 -69 -2 2 5 55 16 117 11 63 27 155 35 204 20 115 54 301 87 470 6 33 15 83 19 110 8 47 19 107 56 305 8 47 19 110 24 140 8 54 20 122 60 335 11 61 23 126 25 145 3 19 9 55 15 80 6 25 12 59 14 75 4 28 31 180 62 345 8 41 19 104 24 139 6 35 12 66 14 70 2 3 7 31 10 61 4 30 11 71 16 90 5 19 12 54 15 77 3 23 12 74 19 113 10 53 11 72 2 75 -29 8 -104 25 -129 29 -33 6 -42 -9 -52 -79 -4 -27 -11 -66 -15 -85 -5 -19 -11 -53 -14 -75 -4 -22 -11 -62 -16 -90 -5 -27 -12 -66 -15 -85 -4 -19 -17 -95 -30 -170 -14 -74 -32 -175 -41 -225 -9 -49 -22 -119 -29 -155 -7 -36 -19 -99 -25 -140 -6 -41 -18 -106 -25 -145 -7 -38 -20 -110 -29 -160 -9 -49 -21 -112 -26 -140 -10 -48 -36 -198 -46 -260 -2 -16 -9 -54 -15 -84 -6 -30 -12 -64 -14 -75 -1 -12 -7 -48 -14 -81 -11 -56 -20 -107 -57 -315 -9 -47 -20 -107 -25 -135 -17 -84 -59 -326 -70 -400 -6 -38 -14 -74 -18 -78 -5 -5 -20 31 -35 80 -15 48 -43 140 -63 203 -20 63 -49 158 -65 210 -16 52 -33 106 -38 120 -4 14 -15 48 -23 75 -24 79 -97 316 -111 360 -7 22 -20 65 -29 95 -10 30 -29 91 -43 135 -14 44 -28 86 -30 95 -2 8 -19 67 -39 130 -20 63 -61 196 -91 295 -87 281 -100 322 -139 445 -20 63 -38 122 -40 130 -1 8 -14 51 -28 95 -14 44 -44 139 -67 211 l-41 132 -49 20 c-27 11 -68 39 -93 61 -38 36 -46 39 -62 27 -15 -11 -16 -17 -6 -47 29 -90 182 -583 241 -779 18 -58 40 -130 50 -160 10 -30 25 -77 33 -105 8 -27 29 -95 47 -150 18 -55 34 -107 35 -115 2 -8 31 -103 65 -210 73 -230 148 -473 160 -515 5 -16 41 -133 80 -260 103 -330 160 -513 175 -565 23 -80 106 -344 120 -382 10 -28 11 -47 3 -74 -5 -20 -11 -44 -13 -53 -2 -9 -27 -99 -55 -201 -27 -102 -52 -194 -54 -205 -4 -19 -52 -194 -111 -410 -13 -49 -36 -135 -51 -190 -72 -270 -104 -387 -124 -460 -12 -44 -31 -114 -41 -155 -88 -334 -110 -413 -114 -420 -3 -4 -7 -25 -11 -46 -3 -22 -10 -46 -14 -54 -4 -8 -11 -32 -14 -54 -4 -21 -9 -43 -13 -49 -3 -6 -10 -27 -14 -46 -4 -20 -15 -61 -23 -91 -8 -30 -22 -80 -30 -110 -8 -30 -44 -165 -81 -300 -36 -135 -79 -297 -96 -360 -17 -63 -41 -153 -54 -200 -13 -47 -38 -139 -55 -205 -33 -127 -38 -146 -131 -490 -33 -121 -62 -227 -63 -235 -2 -8 -20 -76 -40 -150 -20 -74 -51 -187 -67 -250 -17 -63 -35 -131 -41 -150 -5 -19 -14 -56 -20 -83 -6 -26 -14 -47 -18 -47 -4 0 -12 21 -18 48 -5 26 -17 74 -27 107 -19 68 -49 181 -110 410 -23 88 -88 331 -144 540 -127 470 -139 516 -185 690 -21 77 -55 205 -77 285 -22 80 -42 152 -43 160 -10 42 -38 149 -46 175 -5 17 -16 55 -24 85 -8 30 -22 82 -31 115 -9 33 -23 85 -31 115 -8 30 -19 69 -24 85 -5 17 -12 45 -15 64 -3 19 -8 38 -11 43 -4 5 -17 53 -31 106 -37 144 -78 299 -122 462 -10 36 -37 135 -59 220 -23 85 -48 178 -56 205 -21 78 -75 281 -100 378 -16 60 -20 90 -12 92 6 1 54 13 106 25 434 103 784 340 997 675 75 118 144 294 172 440 13 64 31 291 26 309 -2 6 -6 58 -9 116 -5 90 -21 193 -56 340 -36 154 -143 391 -238 525 -113 159 -360 375 -577 504 -229 136 -324 203 -393 275 -74 76 -99 129 -117 239 -25 154 15 283 124 399 74 79 125 111 214 134 61 15 69 15 116 -1 31 -10 67 -33 92 -58 l42 -40 -7 -89 c-7 -111 -21 -142 -89 -211 -59 -58 -77 -100 -77 -172 1 -93 95 -207 225 -271 74 -36 84 -39 180 -41 105 -3 148 7 246 57 91 47 168 168 211 330 33 125 32 353 -1 460 -21 67 -67 177 -81 190 -3 3 -18 25 -34 50 -36 56 -144 161 -213 205 -157 102 -321 153 -571 176 -263 24 -486 -29 -691 -166 -148 -98 -297 -287 -374 -475 -90 -217 -102 -519 -30 -739 56 -172 153 -321 318 -487 125 -126 156 -150 356 -286 415 -280 541 -401 615 -590 104 -265 95 -554 -22 -782 -100 -192 -315 -380 -549 -479 -62 -26 -73 -25 -79 10 -3 11 -9 36 -14 56 -8 29 -5 51 18 123 16 49 45 143 65 209 20 66 43 138 50 160 7 22 28 87 45 145 18 58 48 152 66 210 18 58 49 159 69 225 20 66 43 138 50 160 49 152 58 188 48 204 -16 26 -134 104 -143 95 -4 -5 -20 -49 -35 -99 -15 -49 -42 -139 -61 -200 -20 -60 -41 -130 -49 -155 -7 -25 -27 -90 -44 -145 -17 -55 -39 -125 -47 -155 -9 -30 -23 -71 -30 -90 -7 -19 -16 -46 -19 -60 -8 -29 -88 -289 -136 -440 -40 -123 -42 -194 -10 -283 l20 -58 -22 -9 c-27 -11 -128 -34 -222 -51 -112 -21 -389 -15 -507 10 -241 51 -427 148 -591 309 -298 292 -424 738 -300 1057 57 146 202 289 340 336 123 41 286 26 418 -39 74 -37 168 -137 195 -209 71 -191 34 -333 -145 -554 -105 -130 -128 -202 -101 -319 43 -182 229 -304 415 -270 225 42 416 272 518 625 9 31 16 113 19 215 4 187 -9 263 -71 397 -114 246 -324 411 -680 532 -199 68 -258 81 -374 81 l-97 0 -75 107 c-41 59 -89 127 -107 152 -32 45 -43 62 -133 189 -24 35 -53 76 -64 92 -44 61 -86 121 -183 260 -56 80 -105 150 -109 155 -5 6 -56 77 -113 159 -58 82 -130 184 -160 227 -30 43 -68 98 -85 121 -16 23 -92 130 -167 238 -76 107 -141 200 -146 205 -4 6 -79 112 -167 237 -88 125 -180 256 -204 290 -24 35 -57 81 -73 103 -48 66 -88 128 -88 137 0 4 494 6 1097 5 l1098 -2 16 -80z m8651 79 c3 -2 -6 -46 -19 -97 -14 -50 -26 -99 -28 -107 -2 -8 -40 -161 -85 -340 -44 -179 -83 -332 -85 -340 -2 -8 -10 -42 -18 -75 -9 -33 -97 -384 -196 -780 -202 -803 -170 -710 -316 -900 -33 -43 -71 -92 -85 -110 -14 -18 -54 -70 -89 -116 -35 -46 -107 -140 -160 -207 -53 -68 -106 -138 -119 -155 -12 -18 -35 -47 -50 -66 -51 -63 -305 -396 -346 -454 -16 -22 -37 -48 -45 -57 -9 -9 -40 -48 -69 -86 -28 -38 -130 -170 -225 -292 -94 -123 -188 -245 -207 -272 -19 -26 -54 -72 -77 -101 -22 -30 -91 -119 -153 -199 -61 -80 -130 -169 -153 -199 -23 -30 -60 -78 -82 -106 -22 -29 -53 -70 -70 -91 -82 -106 -366 -476 -402 -524 -23 -30 -63 -82 -88 -115 -26 -33 -65 -85 -88 -115 -22 -30 -43 -57 -47 -60 -3 -3 -16 -20 -29 -38 -13 -18 -25 -31 -27 -29 -2 2 7 37 20 78 37 113 99 310 141 444 20 66 64 206 97 310 33 105 87 276 119 380 33 105 69 217 79 250 11 33 38 121 61 195 22 74 45 146 50 160 5 14 31 97 58 185 28 88 89 284 136 435 124 394 181 577 200 640 10 30 23 73 30 95 23 68 99 309 101 320 1 6 20 66 42 135 22 69 58 184 80 255 22 72 68 216 100 320 61 192 126 400 209 665 25 80 51 163 58 185 8 22 33 101 55 175 42 136 129 411 201 638 21 68 39 129 39 137 0 8 8 19 18 24 17 10 1454 16 1464 5z m1278 -1 c0 -3 -12 -20 -27 -38 -16 -18 -73 -92 -128 -165 -55 -72 -143 -187 -195 -254 -52 -68 -120 -156 -150 -195 -30 -40 -68 -90 -85 -111 -16 -21 -53 -69 -82 -107 -29 -37 -108 -139 -175 -226 -68 -88 -139 -180 -158 -206 -19 -27 -62 -83 -95 -126 -33 -43 -69 -89 -80 -104 -11 -14 -60 -78 -110 -142 -49 -63 -99 -128 -110 -143 -11 -16 -25 -33 -30 -40 -6 -6 -24 -29 -40 -51 -17 -22 -38 -49 -48 -60 -10 -11 -32 -41 -49 -67 -28 -44 -57 -66 -45 -34 7 17 127 489 137 536 4 19 13 55 19 80 28 103 142 559 146 585 2 11 31 128 65 260 35 132 82 321 107 420 25 99 50 183 56 187 14 9 1077 10 1077 1z" transform="matrix(.1 0 0 -.1 0 2048)"/><path d="M13968 12381 l-106 -6 -34 -48 c-96 -137 -436 -617 -511 -723 -12 -17 -40 -58 -62 -90 -22 -32 -46 -65 -52 -72 -14 -15 -19 -322 -5 -322 4 0 17 17 30 38 12 20 39 60 60 88 20 28 127 178 237 334 110 156 215 304 233 329 62 89 96 136 131 187 20 28 73 104 119 168 82 117 89 128 75 124 -5 -1 -56 -4 -115 -7z" transform="matrix(.1 0 0 -.1 0 2048)"/></g></svg>